<svg xmlns="http://www.w3.org/2000/svg" width="799.546" height="594.444"><path fill="#090814" d="M190 195.772v4.394H69.654A69.653 69.653 0 0 0 0 269.818v254.973a69.654 69.654 0 0 0 69.652 69.653h660.24a69.654 69.654 0 0 0 69.654-69.653V269.817a69.654 69.654 0 0 0-69.654-69.654H275.666v-4.394Z"/><path fill="#fff" d="M70.143 214.99h659.264a51.97 51.97 0 0 1 52.017 51.925v256.293a51.98 51.98 0 0 1-51.943 52.019H70.143a51.98 51.98 0 0 1-52.019-51.945v-31.155a24.71 24.71 0 0 0 34.042-22.882V323.17a24.71 24.71 0 0 0-34.042-22.883v-33.279a51.97 51.97 0 0 1 51.925-52.019h.093Z"/><path fill="#f0f0f0" d="M497.427 417.788H303.4a12.833 12.833 0 0 1-12.818-12.818v-6.377a12.833 12.833 0 0 1 12.818-12.818h194.027a12.833 12.833 0 0 1 12.818 12.818v6.38a12.833 12.833 0 0 1-12.818 12.818Z"/><path fill="#3f3d56" d="M496.786 417.788H302.759a13.474 13.474 0 0 1-13.459-13.459v-6.38a13.475 13.475 0 0 1 13.459-13.459h194.027a13.475 13.475 0 0 1 13.459 13.459v6.38a13.475 13.475 0 0 1-13.459 13.459m-194.027-30.735a10.91 10.91 0 0 0-10.9 10.9v6.38a10.91 10.91 0 0 0 10.9 10.9h194.027a10.91 10.91 0 0 0 10.9-10.9v-6.38a10.91 10.91 0 0 0-10.9-10.9Z"/><path fill="#f0f0f0" d="M496.786 466.805H302.759a12.833 12.833 0 0 1-12.818-12.818v-6.382a12.833 12.833 0 0 1 12.818-12.818h194.027a12.833 12.833 0 0 1 12.818 12.818v6.38a12.833 12.833 0 0 1-12.818 12.82"/><path fill="#3f3d56" d="M496.786 467.447H302.759a13.474 13.474 0 0 1-13.459-13.459v-6.38a13.475 13.475 0 0 1 13.459-13.459h194.027a13.475 13.475 0 0 1 13.459 13.459v6.38a13.475 13.475 0 0 1-13.459 13.459m-194.027-30.735a10.91 10.91 0 0 0-10.9 10.9v6.38a10.91 10.91 0 0 0 10.9 10.9h194.027a10.91 10.91 0 0 0 10.9-10.9v-6.38a10.91 10.91 0 0 0-10.9-10.9Z"/><path fill="#0079c1" d="M445.19 515.825h-92.115a12.833 12.833 0 0 1-12.818-12.818v-6.38a12.833 12.833 0 0 1 12.818-12.818h92.115a12.833 12.833 0 0 1 12.818 12.818v6.38a12.833 12.833 0 0 1-12.818 12.818"/><path fill="#3f3d56" d="M445.831 517.107h-92.116a13.474 13.474 0 0 1-13.456-13.46v-6.38a13.475 13.475 0 0 1 13.459-13.459h92.115a13.474 13.474 0 0 1 13.459 13.459v6.38a13.475 13.475 0 0 1-13.461 13.46m-92.115-30.735a10.91 10.91 0 0 0-10.9 10.9v6.38a10.91 10.91 0 0 0 10.9 10.9h92.115a10.91 10.91 0 0 0 10.9-10.9v-6.38a10.91 10.91 0 0 0-10.9-10.9Z"/><g transform="translate(517.022)"><path fill="#ed9da0" d="m100.479 288.329-9.7 9.7-13.395 6.928 1.386 12.009 25.4-2.771 3.233-6.466-.924-5.543 1.848-8.776Z"/><path fill="#2f2e41" d="m80.617 312.347-.793-10.19-27.382 12.961s-2.12 6 4.483 6.928 50.482.924 50.482-1.386 1.2-14.133 1.2-14.133l-26.6 7.667-1.386-1.848Z"/><path fill="#ed9da0" d="m135.365 261.387 7.016 11.787 3.421 14.687 11.981 1.611 3.562-25.305-5.473-4.724-5.6-.468-8.052-3.949Z"/><path fill="#2f2e41" d="m153.76 286.55-10.072-1.738 5.828 29.729s5.3 3.532 7.818-2.641 13.313-48.7 11.074-49.272-13.4-4.64-13.4-4.64l.887 27.673Z"/><path fill="#ed9da0" d="m166.003 40.821 1.177 28.245-18.825.463v-24.3Z"/><path fill="#2f2e41" d="M203.296 157.503s10.187 26.393 2.778 37.042-42.135 16.669-42.135 16.669l-14.354 13.428-37.964 73.158-22.225-5.093 31.486-75.01s18.521-30.1 25.466-34.264 19.873-19.814 19.873-19.814z"/><path fill="#2f2e41" d="m140.324 159.819-14.263 10.1s-50.561 13.513-34.355 45 40.283 54.174 40.283 54.174l21.3-12.039-34.264-48.154 60.193-36.579-38.894-12.5Z"/><path fill="#ed9da0" d="M10.681 121.424c-6.7 1.349-11.44 5.9-10.581 10.165s6.988 6.629 13.693 5.279a17.1 17.1 0 0 0 7.367-3.32l28.327-6.073-2.43-11.2-28.3 5.355a17.1 17.1 0 0 0-8.076-.206M117.645 193.771c-4.9 4.769-6.409 11.162-3.373 14.28s9.466 1.777 14.366-2.994a17.1 17.1 0 0 0 4.388-6.786l20.5-20.469-8.115-8.087-20.863 19.849a17.1 17.1 0 0 0-6.9 4.207Z"/><path fill="#e6e6e6" d="M146.112 59.108h28.813l21.193 14.354-1.852 56.489s-3.873 14.185 9.261 27.319c7.871 7.871 5.093 12.5 5.093 12.5l-46.766 3.7-28.013-8.1 10.187-25.462-1.852-7.871s-18.984-13.429-15.743-27.319 7.408-42.6 7.408-42.6z"/><path fill="#e6e6e6" d="m166.254 142.224 20.836-68.528s10.65-3.7 15.28 5.556-1.194 44.682-1.194 44.682l-24.272 40.052-38.894 29.634-9.724-10.65ZM78.323 106.88l55.892-44.792s10.881 2.956 9.473 13.214-26.216 36.2-26.216 36.2l-42.648 19.35-48.833 2.5-2.012-14.28 54.344-12.189Z"/><circle cx="19.447" cy="19.447" r="19.447" fill="#ed9da0" transform="translate(133.147 15.123)"/><path fill="#2f2e41" d="M162.563 2.012s7.8-5.63 14.725 6.5c4.733 8.283 7.244 24.044 8.36 33.2a10.09 10.09 0 0 1-5.458 10.217l-24.557 12.448s9.095-34.647-3.465-39.844-12.127-3.9-12.127-3.9-9.961 21.655 3.032 31.182l-10.826 6.933s-7.363-40.71 6.063-48.506 10.394-13.426 24.253-8.229Z"/></g><g fill="#0079c1"><path d="M514.248 121.191a13.79 13.79 0 1 0 14.719 12.791 13.79 13.79 0 0 0-14.72-12.79m1.286 18.34a4.596 4.596 0 1 1 4.263-4.906 4.596 4.596 0 0 1-4.263 4.907"/><path d="M481.972 110.503a5 5 0 0 1 1.661-3.4l6.016-5.815a4.776 4.776 0 0 1 6.848.477l17.988 21.172a5.05 5.05 0 0 1-.488 7.009 4.776 4.776 0 0 1-6.849-.478l-13.041-18.546-4.114 3.665a4.77 4.77 0 0 1-5.352.706 4.97 4.97 0 0 1-2.669-4.79"/><path d="M501.45 112.492a3.92 3.92 0 0 0-2.67 1.32l-5.438 6.184a3.83 3.83 0 0 0 .439 5.376 3.937 3.937 0 0 0 5.447-.318l5.438-6.183a3.83 3.83 0 0 0 .55-4.251 3.9 3.9 0 0 0-3.766-2.128"/></g><g transform="translate(361.759 273.106)"><circle cx="38.014" cy="38.014" r="38.014" fill="#0079c1"/><path fill="#fff" d="M38.032 24.837a6 6 0 0 1 6 6v15.008a6 6 0 1 1-12 0V30.837a6 6 0 0 1 6-6"/></g></svg>