<svg xmlns="http://www.w3.org/2000/svg" width="799.788" height="589.942"><g transform="translate(-580.75 -195.521)"><path fill="#9f616a" d="M766.749 364.521a77.328 77.328 0 1 1 76.183 98.7l-13.647 5.74 19.341 71.811-99.737 18.791-40.536-104.334s58.838 1.1 73.859-19.181a77.24 77.24 0 0 1-15.463-71.527"/><path fill="#090814" d="M1126.165 724.268 970.932 785.46l-150.76-22.262 158.836-46.717Z"/><path fill="#9f616a" d="m979.868 699.036-148.53-74.135-13.356 33.61 141.4 81.348c3.489 11.089 12.177 21.441 24.633 27.692 21.795 10.936 46.8 5.18 55.851-12.857s-1.28-41.525-23.075-52.461c-12.456-6.25-25.949-7.028-36.924-3.2Z"/><path fill="#e6e6e6" d="M727.818 453.672s14.493 75.164 65.1 73.607 41.269-37.377 41.269-37.377l47.8 26.862s20.715 29.2 20.715 65.792l14.794 70.853 21.022 21.8-62.289 49.052-31.923-45.159-31.923 96.548-231.633 9.813 4.282-199.009s12.458-95.769 65.4-115.234 77.382-17.547 77.382-17.547Z"/><path fill="#090814" d="M856.656 333.373s30.355 27.464 61.433 23.128 36.859-15.177 36.859-19.514c0 0 0 1.445-8.673 4.336l-3.614-31.078s-4.336 8.151-20.237 10.942c0 0 13.732-5.737 0-17.012 0 0-7.227 6.071-13.732 6.071 0 0-36.137-49.146-107.688-18.068v-12.914l-6.5 16.527-8.392-.73-8.23-.716s-18.071 20.96-16.626 35.415-25.972 87.057 21.344 109.3c0 0-11.226-64.488 8.288-49.311s31.8-8.673 31.8-8.673l33.969-47.7Z"/><path fill="#9f616a" d="m860.739 717.522-165.968-3.456-8.028 57.045 172.948-7.926c7.9 8.53 20.181 14.169 34.113 14.489 24.378.559 44.516-15.342 44.979-35.518s-18.924-36.984-43.3-37.543c-13.933-.32-26.46 4.751-34.742 12.909Z"/><path fill="#e6e6e6" d="M695.595 591.126s5.45 34.259-10.9 45.938c0 0 5.45 42.045-7.786 55.281 0 0 24.324.985 19.559 13.729 0 0 35.723-5.943 31.051 8.851 0 0-33.059 39.677-25.094 65.387l-108.048-5.434-12.06-62.214"/><rect width="164.394" height="125.592" fill="#f2f2f2" rx="8" transform="translate(1216.144 296.843)"/><path fill="#fff" d="M1224.313 303.084h148.056v113.111h-148.056z"/><path fill="#0079c1" d="M1300.941 386.983h.059a39.474 39.474 0 0 0 .883-78.785.9.9 0 0 0-.681.236.9.9 0 0 0-.291.652l-.863 76.986a.9.9 0 0 0 .894.912Z"/><path fill="#e6e6e6" d="M1269.982 320.929a1.16 1.16 0 0 1 .816.348l26.5 27.1a1.15 1.15 0 0 1 .33.822l-.413 36.838a1.15 1.15 0 0 1-.374.839 1.16 1.16 0 0 1-.874.3 39.733 39.733 0 0 1-26.87-65.862 1.16 1.16 0 0 1 .84-.393Z"/><path fill="#090814" d="M1296.932 307.883a1.17 1.17 0 0 1 .793.324 1.15 1.15 0 0 1 .356.848l-.373 33.238a1.157 1.157 0 0 1-1.985.8l-23.127-23.652a1.16 1.16 0 0 1 .062-1.68 39.8 39.8 0 0 1 24.2-9.873Z"/><path fill="#0079c1" d="M1285.019 402.949a7.09 7.09 0 1 1-7.01-7.169 7.09 7.09 0 0 1 7.01 7.169"/><path fill="#090814" d="M1305.274 403.177a7.09 7.09 0 1 1-7.01-7.169 7.09 7.09 0 0 1 7.01 7.169"/><path fill="#e6e6e6" d="M1325.53 403.404a7.09 7.09 0 1 1-7.01-7.169 7.09 7.09 0 0 1 7.01 7.169"/><rect width="139.559" height="106.619" fill="#f2f2f2" rx="8" transform="translate(1008.178 195.521)"/><path fill="#fff" d="M1015.113 200.82h125.69v96.024h-125.69z"/><circle cx="5.219" cy="5.219" r="5.219" fill="#090814" transform="translate(1031.22 221.942)"/><path fill="#3f3d56" d="M1120.29 223.1a3.539 3.539 0 0 1 0 7.078h-54.887a3.539 3.539 0 0 1 0-7.078zm0-.867h-54.887a4.406 4.406 0 1 0 0 8.812h54.887a4.406 4.406 0 1 0 0-8.812"/><path fill="#0079c1" d="M1098.632 231.045h-41.318a4.406 4.406 0 1 1 0-8.812h41.319a4.406 4.406 0 0 1 0 8.812Z"/><circle cx="5.219" cy="5.219" r="5.219" fill="#090814" transform="translate(1031.22 243.613)"/><path fill="#3f3d56" d="M1120.29 244.77a3.539 3.539 0 0 1 0 7.078h-54.887a3.539 3.539 0 0 1 0-7.078zm0-.867h-54.887a4.406 4.406 0 0 0 0 8.812h54.887a4.406 4.406 0 1 0 0-8.812"/><path fill="#0079c1" d="M1114.235 252.716h-56.921a4.406 4.406 0 1 1 0-8.812h56.921a4.406 4.406 0 0 1 0 8.812"/><circle cx="5.219" cy="5.219" r="5.219" fill="#090814" transform="translate(1031.22 265.283)"/><path fill="#3f3d56" d="M1120.29 266.441a3.539 3.539 0 0 1 0 7.078h-54.887a3.539 3.539 0 1 1 0-7.078zm0-.867h-54.887a4.406 4.406 0 1 0 0 8.812h54.887a4.406 4.406 0 1 0 0-8.812"/><path fill="#0079c1" d="M1080.429 274.387h-23.115a4.406 4.406 0 1 1 0-8.812h23.115a4.406 4.406 0 1 1 0 8.812"/><g transform="translate(1087.726 463.735)"><rect width="256.836" height="155.887" fill="#f2f2f2" rx="8"/><path fill="#fff" d="M5.105 4.655h246.626v146.224H5.105z"/><path fill="#090814" d="M221.145 122.872H41.363a.563.563 0 0 1-.563-.563V36.138a.563.563 0 1 1 1.125 0v85.609h179.22a.563.563 0 1 1 0 1.125"/><path fill="#0079c1" d="M79.771 116.683H63.419a1.67 1.67 0 0 1-1.67-1.67V92.471a1.67 1.67 0 0 1 1.67-1.67h16.352a1.67 1.67 0 0 1 1.67 1.67v22.539a1.67 1.67 0 0 1-1.67 1.673M109.592 116.683H93.239a1.67 1.67 0 0 1-1.67-1.67V71.091a1.67 1.67 0 0 1 1.67-1.67h16.352a1.67 1.67 0 0 1 1.67 1.67v43.922a1.67 1.67 0 0 1-1.669 1.67M139.412 116.683H123.06a1.67 1.67 0 0 1-1.67-1.67V92.471a1.67 1.67 0 0 1 1.67-1.67h16.352a1.67 1.67 0 0 1 1.67 1.67v22.539a1.67 1.67 0 0 1-1.67 1.673M169.232 116.683H152.88a1.636 1.636 0 0 1-1.67-1.594V62.575a1.636 1.636 0 0 1 1.67-1.594h16.352a1.636 1.636 0 0 1 1.67 1.594v52.513a1.636 1.636 0 0 1-1.67 1.595M199.053 116.683H182.7a1.67 1.67 0 0 1-1.67-1.67V47.46a1.67 1.67 0 0 1 1.67-1.67h16.353a1.67 1.67 0 0 1 1.67 1.67v67.553a1.67 1.67 0 0 1-1.67 1.67"/><circle cx="3.376" cy="3.376" r="3.376" fill="#090814" transform="translate(68.219 77.297)"/><circle cx="3.376" cy="3.376" r="3.376" fill="#090814" transform="translate(98.039 55.354)"/><circle cx="3.376" cy="3.376" r="3.376" fill="#090814" transform="translate(127.86 77.297)"/><circle cx="3.376" cy="3.376" r="3.376" fill="#090814" transform="translate(157.68 44.664)"/><circle cx="3.376" cy="3.376" r="3.376" fill="#090814" transform="translate(187.501 32.285)"/><path fill="#090814" d="M131.307 81.429 101.416 59.04 71.932 81.124l-.674-.9 30.158-22.589 29.749 22.283 29.562-32.352.118-.048 29.821-12.015.421 1.044-29.7 11.967Z"/></g></g></svg>