<svg xmlns="http://www.w3.org/2000/svg" width="799.468" height="552.327"><path fill="#090814" d="M785.854 0H13.613A13.747 13.747 0 0 0 0 13.848v524.66a13.74 13.74 0 0 0 13.613 13.819h772.241a13.74 13.74 0 0 0 13.613-13.819V13.848A13.747 13.747 0 0 0 785.856 0Z"/><path fill="#fff" d="M763.532 3.164h-748.6a13.225 13.225 0 0 0-13.2 13.223v501.007a13.22 13.22 0 0 0 13.2 13.2h748.6a13.22 13.22 0 0 0 13.2-13.2V16.388a13.224 13.224 0 0 0-13.193-13.223Z"/><path fill="#3f3d56" d="M400.467 359.537a50 50 0 0 1-12.388-1.6l-.8-.221-.74-.371c-26.745-13.41-49.309-31.122-67.064-52.645a199.3 199.3 0 0 1-33.862-60.128 231.4 231.4 0 0 1-13.087-81.525c.011-.582.021-1.032.021-1.342 0-13.484 7.485-25.316 19.069-30.143 8.866-3.694 89.361-36.757 95.177-39.146 10.953-5.488 22.638-.907 24.508-.106 4.194 1.715 78.607 32.151 94.688 39.808 16.573 7.892 20.994 22.069 20.994 29.2 0 32.292-5.593 62.472-16.623 89.7a207.7 207.7 0 0 1-37.326 60.155c-30.47 34.29-60.949 46.446-61.243 46.553a33.3 33.3 0 0 1-11.327 1.809Zm-7.168-17.754c2.642.592 8.726 1.481 12.691.035 5.037-1.837 30.547-15.065 54.386-41.892 32.937-37.069 49.646-83.66 49.673-138.488-.059-1.111-.848-9.033-11.339-14.029-15.769-7.509-93.115-39.136-93.894-39.454l-.214-.091c-1.621-.679-6.779-2.11-10.335-.247l-.712.332c-.862.354-86.309 35.449-95.422 39.246-6.375 2.656-8.646 9.236-8.646 14.509 0 .385-.01.946-.024 1.67-.729 37.516 7.952 129.83 103.836 178.408Z"/><path fill="#0079c1" d="M390.131 99.885s-86.223 35.414-95.462 39.264-13.857 13.087-13.857 22.326-6.929 129.785 109.319 188.069c0 0 10.551 2.919 18.555 0s109.625-52.195 109.625-188.455c0 0 0-13.857-16.167-21.556s-94.331-39.647-94.331-39.647-9.598-4.237-17.682-.001"/><path d="M399.576 127.83v188.914s-86.993-41.875-86.223-151.964Z" opacity=".1"/><path fill="#fff" d="M388.362 270.033a12.4 12.4 0 0 1-7.469-2.481l-.134-.1-28.129-21.536a12.5 12.5 0 1 1 15.2-19.84l18.22 13.971 43.056-56.151a12.5 12.5 0 0 1 17.521-2.313l-.268.364.275-.358a12.51 12.51 0 0 1 2.313 17.521l-50.644 66.047a12.5 12.5 0 0 1-9.942 4.877Z"/><g transform="translate(-520.266 -210.997)"><rect width="64" height="24" fill="#e6e6e6" rx="12" transform="translate(885 628)"/><circle cx="14.5" cy="14.5" r="14.5" fill="#0079c1" transform="translate(927 626)"/></g></svg>